<svg width="43" height="43" viewBox="0 0 43 43" fill="none" xmlns="http://www.w3.org/2000/svg">
<path d="M13.9749 3.58334H29.0249C34.7583 3.58334 39.4166 8.24168 39.4166 13.975V29.025C39.4166 31.7811 38.3218 34.4242 36.3729 36.373C34.4241 38.3218 31.781 39.4167 29.0249 39.4167H13.9749C8.24159 39.4167 3.58325 34.7583 3.58325 29.025V13.975C3.58325 11.219 4.67809 8.57581 6.6269 6.62699C8.57572 4.67818 11.2189 3.58334 13.9749 3.58334ZM13.6166 7.16668C11.9059 7.16668 10.2654 7.84623 9.05575 9.05584C7.84614 10.2654 7.16659 11.906 7.16659 13.6167V29.3833C7.16659 32.9488 10.0512 35.8333 13.6166 35.8333H29.3833C31.0939 35.8333 32.7345 35.1538 33.9441 33.9442C35.1537 32.7346 35.8333 31.094 35.8333 29.3833V13.6167C35.8333 10.0513 32.9487 7.16668 29.3833 7.16668H13.6166ZM30.9062 9.85418C31.5001 9.85418 32.0698 10.0901 32.4898 10.5101C32.9098 10.9301 33.1458 11.4998 33.1458 12.0938C33.1458 12.6877 32.9098 13.2574 32.4898 13.6774C32.0698 14.0974 31.5001 14.3333 30.9062 14.3333C30.3122 14.3333 29.7425 14.0974 29.3225 13.6774C28.9025 13.2574 28.6666 12.6877 28.6666 12.0938C28.6666 11.4998 28.9025 10.9301 29.3225 10.5101C29.7425 10.0901 30.3122 9.85418 30.9062 9.85418ZM21.4999 12.5417C23.8758 12.5417 26.1544 13.4855 27.8344 15.1655C29.5144 16.8455 30.4583 19.1241 30.4583 21.5C30.4583 23.8759 29.5144 26.1545 27.8344 27.8345C26.1544 29.5145 23.8758 30.4583 21.4999 30.4583C19.124 30.4583 16.8454 29.5145 15.1654 27.8345C13.4854 26.1545 12.5416 23.8759 12.5416 21.5C12.5416 19.1241 13.4854 16.8455 15.1654 15.1655C16.8454 13.4855 19.124 12.5417 21.4999 12.5417ZM21.4999 16.125C20.0744 16.125 18.7072 16.6913 17.6992 17.6993C16.6912 18.7073 16.1249 20.0745 16.1249 21.5C16.1249 22.9255 16.6912 24.2927 17.6992 25.3007C18.7072 26.3087 20.0744 26.875 21.4999 26.875C22.9255 26.875 24.2926 26.3087 25.3006 25.3007C26.3086 24.2927 26.8749 22.9255 26.8749 21.5C26.8749 20.0745 26.3086 18.7073 25.3006 17.6993C24.2926 16.6913 22.9255 16.125 21.4999 16.125Z" fill="#003E9B"/>
</svg>
