<svg width="43" height="43" viewBox="0 0 43 43" fill="none" xmlns="http://www.w3.org/2000/svg">
<path d="M13.9752 3.58331H29.0252C34.7585 3.58331 39.4168 8.24165 39.4168 13.975V29.025C39.4168 31.781 38.322 34.4242 36.3732 36.373C34.4244 38.3218 31.7812 39.4166 29.0252 39.4166H13.9752C8.24183 39.4166 3.5835 34.7583 3.5835 29.025V13.975C3.5835 11.2189 4.67833 8.57578 6.62714 6.62696C8.57596 4.67815 11.2191 3.58331 13.9752 3.58331ZM13.6168 7.16665C11.9062 7.16665 10.2656 7.8462 9.05599 9.05581C7.84638 10.2654 7.16683 11.906 7.16683 13.6166V29.3833C7.16683 32.9487 10.0514 35.8333 13.6168 35.8333H29.3835C31.0941 35.8333 32.7347 35.1538 33.9443 33.9442C35.1539 32.7345 35.8335 31.094 35.8335 29.3833V13.6166C35.8335 10.0512 32.9489 7.16665 29.3835 7.16665H13.6168ZM30.9064 9.85415C31.5004 9.85415 32.07 10.0901 32.49 10.5101C32.91 10.9301 33.146 11.4998 33.146 12.0937C33.146 12.6877 32.91 13.2574 32.49 13.6774C32.07 14.0974 31.5004 14.3333 30.9064 14.3333C30.3124 14.3333 29.7428 14.0974 29.3228 13.6774C28.9028 13.2574 28.6668 12.6877 28.6668 12.0937C28.6668 11.4998 28.9028 10.9301 29.3228 10.5101C29.7428 10.0901 30.3124 9.85415 30.9064 9.85415ZM21.5002 12.5416C23.8761 12.5416 26.1546 13.4855 27.8347 15.1655C29.5147 16.8455 30.4585 19.1241 30.4585 21.5C30.4585 23.8759 29.5147 26.1545 27.8347 27.8345C26.1546 29.5145 23.8761 30.4583 21.5002 30.4583C19.1243 30.4583 16.8457 29.5145 15.1657 27.8345C13.4857 26.1545 12.5418 23.8759 12.5418 21.5C12.5418 19.1241 13.4857 16.8455 15.1657 15.1655C16.8457 13.4855 19.1243 12.5416 21.5002 12.5416ZM21.5002 16.125C20.0746 16.125 18.7075 16.6913 17.6995 17.6993C16.6915 18.7073 16.1252 20.0744 16.1252 21.5C16.1252 22.9255 16.6915 24.2927 17.6995 25.3007C18.7075 26.3087 20.0746 26.875 21.5002 26.875C22.9257 26.875 24.2929 26.3087 25.3009 25.3007C26.3089 24.2927 26.8752 22.9255 26.8752 21.5C26.8752 20.0744 26.3089 18.7073 25.3009 17.6993C24.2929 16.6913 22.9257 16.125 21.5002 16.125Z" fill="#003E9B"/>
</svg>
